<?xml version="1.0" encoding="UTF-8" standalone="no" ?>
<!DOCTYPE svg PUBLIC "-//W3C//DTD SVG 1.1//EN" "http://www.w3.org/Graphics/SVG/1.1/DTD/svg11.dtd">
<svg xmlns="http://www.w3.org/2000/svg" xmlns:xlink="http://www.w3.org/1999/xlink" version="1.1" width="336.3027027027028" height="56" viewBox="0 0 336.3027027027028 56" xml:space="preserve">
<desc>Created with Fabric.js 4.6.0</desc>
<defs>
</defs>
<g transform="matrix(0.48 0 0 0.48 203.68 27.62)" id="wQgZFEBTioLd1IhZPthO8"  >
<path style="stroke: none; stroke-width: 1; stroke-dasharray: none; stroke-linecap: butt; stroke-dashoffset: 0; stroke-linejoin: miter; stroke-miterlimit: 4; fill: rgb(4,36,64); fill-rule: nonzero; opacity: 1;" vector-effect="non-scaling-stroke"  transform=" translate(-0.45, 36)" d="M -254.90000000000003 0 L -254.90000000000003 0 L -270.40000000000003 0 Q -272.3 0 -273.15000000000003 -0.85 Q -274.00000000000006 -1.7 -274.00000000000006 -3.6 L -274.00000000000006 -3.6 L -274.00000000000006 -68.4 Q -274.00000000000006 -70.3 -273.15000000000003 -71.15 Q -272.3 -72 -270.40000000000003 -72 L -270.40000000000003 -72 L -254.90000000000003 -72 Q -253.00000000000003 -72 -252.15000000000003 -71.15 Q -251.30000000000004 -70.3 -251.30000000000004 -68.4 L -251.30000000000004 -68.4 L -251.30000000000004 -46.7 L -234.60000000000002 -46.7 L -234.60000000000002 -68.4 Q -234.60000000000002 -70.3 -233.75000000000003 -71.15 Q -232.90000000000003 -72 -231.00000000000003 -72 L -231.00000000000003 -72 L -215.50000000000003 -72 Q -213.60000000000002 -72 -212.75000000000003 -71.15 Q -211.90000000000003 -70.3 -211.90000000000003 -68.4 L -211.90000000000003 -68.4 L -211.90000000000003 -3.6 Q -211.90000000000003 -1.7 -212.75000000000003 -0.85 Q -213.60000000000002 0 -215.50000000000003 0 L -215.50000000000003 0 L -231.00000000000003 0 Q -232.90000000000003 0 -233.75000000000003 -0.85 Q -234.60000000000002 -1.7 -234.60000000000002 -3.6 L -234.60000000000002 -3.6 L -234.60000000000002 -25.8 L -251.30000000000004 -25.8 L -251.30000000000004 -3.6 Q -251.30000000000004 -1.7 -252.15000000000003 -0.85 Q -253.00000000000003 0 -254.90000000000003 0 Z M -172.00000000000003 -51 L -172.00000000000003 -51 L -176.70000000000002 -35.8 L -161.00000000000003 -35.8 L -165.70000000000005 -51 Q -166.10000000000002 -51.9 -166.55 -52.3 Q -167.00000000000003 -52.7 -167.60000000000002 -52.7 L -167.60000000000002 -52.7 L -170.10000000000002 -52.7 Q -170.70000000000005 -52.7 -171.15000000000003 -52.3 Q -171.60000000000002 -51.9 -172.00000000000003 -51 Z M -177.70000000000002 -17.6 L -177.70000000000002 -3.6 Q -177.70000000000002 -1.7 -178.55000000000004 -0.85 Q -179.40000000000003 0 -181.30000000000004 0 L -181.30000000000004 0 L -196.00000000000003 0 Q -197.90000000000003 0 -198.75000000000003 -0.85 Q -199.60000000000002 -1.7 -199.60000000000002 -3.6 L -199.60000000000002 -3.6 L -199.60000000000002 -30 Q -199.60000000000002 -33 -198.65000000000003 -36.9 Q -197.70000000000002 -40.8 -195.70000000000002 -46 L -195.70000000000002 -46 L -187.00000000000003 -68.7 Q -186.40000000000003 -70.4 -185.15000000000003 -71.2 Q -183.90000000000003 -72 -181.90000000000003 -72 L -181.90000000000003 -72 L -155.00000000000003 -72 Q -153.10000000000002 -72 -151.85000000000002 -71.2 Q -150.60000000000002 -70.4 -150.00000000000003 -68.7 L -150.00000000000003 -68.7 L -141.3 -46 Q -139.3 -40.8 -138.35000000000002 -36.9 Q -137.40000000000003 -33 -137.40000000000003 -30 L -137.40000000000003 -30 L -137.40000000000003 -3.6 Q -137.40000000000003 -1.7 -138.25000000000003 -0.85 Q -139.10000000000002 0 -141.00000000000003 0 L -141.00000000000003 0 L -156.10000000000002 0 Q -158.10000000000002 0 -159.05 -0.85 Q -160.00000000000003 -1.7 -160.00000000000003 -3.6 L -160.00000000000003 -3.6 L -160.00000000000003 -17.6 L -177.70000000000002 -17.6 Z M -91.70000000000003 0 L -91.70000000000003 0 L -123.30000000000003 0 Q -125.20000000000003 0 -126.05000000000003 -0.85 Q -126.90000000000003 -1.7 -126.90000000000003 -3.6 L -126.90000000000003 -3.6 L -126.90000000000003 -15.3 Q -126.90000000000003 -17.2 -126.05000000000003 -18.05 Q -125.20000000000003 -18.9 -123.30000000000003 -18.9 L -123.30000000000003 -18.9 L -96.40000000000003 -18.9 Q -95.10000000000002 -18.9 -94.45000000000003 -19.75 Q -93.80000000000003 -20.6 -93.80000000000003 -21.8 L -93.80000000000003 -21.8 Q -93.80000000000003 -23.5 -94.45000000000003 -24.3 Q -95.10000000000002 -25.1 -96.40000000000003 -25.2 L -96.40000000000003 -25.2 L -111.40000000000003 -27.3 Q -118.40000000000003 -28.3 -122.65000000000003 -31.9 Q -126.90000000000003 -35.5 -126.90000000000003 -43.9 L -126.90000000000003 -43.9 L -126.90000000000003 -54.4 Q -126.90000000000003 -62.9 -121.40000000000003 -67.45 Q -115.90000000000003 -72 -106.20000000000003 -72 L -106.20000000000003 -72 L -78.20000000000003 -72 Q -76.30000000000003 -72 -75.45000000000003 -71.15 Q -74.60000000000002 -70.3 -74.60000000000002 -68.4 L -74.60000000000002 -68.4 L -74.60000000000002 -56.5 Q -74.60000000000002 -54.6 -75.45000000000003 -53.75 Q -76.30000000000003 -52.9 -78.20000000000003 -52.9 L -78.20000000000003 -52.9 L -101.50000000000003 -52.9 Q -102.80000000000003 -52.9 -103.50000000000003 -52.05 Q -104.20000000000003 -51.2 -104.20000000000003 -49.9 L -104.20000000000003 -49.9 Q -104.20000000000003 -48.6 -103.50000000000003 -47.7 Q -102.80000000000003 -46.8 -101.50000000000003 -46.7 L -101.50000000000003 -46.7 L -86.60000000000002 -44.7 Q -79.60000000000002 -43.7 -75.30000000000003 -40.1 Q -71.00000000000003 -36.5 -71.00000000000003 -28.1 L -71.00000000000003 -28.1 L -71.00000000000003 -17.6 Q -71.00000000000003 -9.1 -76.55000000000003 -4.55 Q -82.10000000000002 0 -91.70000000000003 0 Z M -41.00000000000003 0 L -41.00000000000003 0 L -56.50000000000003 0 Q -58.40000000000003 0 -59.25000000000003 -0.85 Q -60.10000000000003 -1.7 -60.10000000000003 -3.6 L -60.10000000000003 -3.6 L -60.10000000000003 -68.4 Q -60.10000000000003 -70.3 -59.25000000000003 -71.15 Q -58.40000000000003 -72 -56.50000000000003 -72 L -56.50000000000003 -72 L -41.00000000000003 -72 Q -39.10000000000003 -72 -38.25000000000003 -71.15 Q -37.40000000000003 -70.3 -37.40000000000003 -68.4 L -37.40000000000003 -68.4 L -37.40000000000003 -46.7 L -20.70000000000003 -46.7 L -20.70000000000003 -68.4 Q -20.70000000000003 -70.3 -19.85000000000003 -71.15 Q -19.00000000000003 -72 -17.10000000000003 -72 L -17.10000000000003 -72 L -1.6000000000000227 -72 Q 0.29999999999996874 -72 1.1499999999999773 -71.15 Q 1.9999999999999716 -70.3 1.9999999999999716 -68.4 L 1.9999999999999716 -68.4 L 1.9999999999999716 -3.6 Q 1.9999999999999716 -1.7 1.1499999999999773 -0.85 Q 0.29999999999996874 0 -1.6000000000000227 0 L -1.6000000000000227 0 L -17.10000000000003 0 Q -19.00000000000003 0 -19.85000000000003 -0.85 Q -20.70000000000003 -1.7 -20.70000000000003 -3.6 L -20.70000000000003 -3.6 L -20.70000000000003 -25.8 L -37.40000000000003 -25.8 L -37.40000000000003 -3.6 Q -37.40000000000003 -1.7 -38.25000000000003 -0.85 Q -39.10000000000003 0 -41.00000000000003 0 Z M 49.799999999999976 0 L 49.799999999999976 0 L 33.59999999999998 0 Q 31.699999999999978 0 30.849999999999977 -0.85 Q 29.99999999999998 -1.7 29.99999999999998 -3.6 L 29.99999999999998 -3.6 L 29.99999999999998 -52.7 L 15.299999999999978 -52.7 Q 13.399999999999977 -52.7 12.549999999999978 -53.55 Q 11.699999999999978 -54.4 11.699999999999978 -56.3 L 11.699999999999978 -56.3 L 11.699999999999978 -68.4 Q 11.699999999999978 -70.3 12.549999999999978 -71.15 Q 13.399999999999977 -72 15.299999999999978 -72 L 15.299999999999978 -72 L 68.09999999999998 -72 Q 69.99999999999997 -72 70.84999999999998 -71.15 Q 71.69999999999997 -70.3 71.69999999999997 -68.4 L 71.69999999999997 -68.4 L 71.69999999999997 -56.3 Q 71.69999999999997 -54.4 70.84999999999998 -53.55 Q 69.99999999999997 -52.7 68.09999999999998 -52.7 L 68.09999999999998 -52.7 L 53.39999999999998 -52.7 L 53.39999999999998 -3.6 Q 53.39999999999998 -1.7 52.549999999999976 -0.85 Q 51.699999999999974 0 49.799999999999976 0 Z M 103.49999999999999 -51 L 103.49999999999999 -51 L 98.79999999999998 -35.8 L 114.49999999999999 -35.8 L 109.79999999999998 -51 Q 109.39999999999998 -51.9 108.94999999999999 -52.3 Q 108.49999999999999 -52.7 107.89999999999998 -52.7 L 107.89999999999998 -52.7 L 105.39999999999998 -52.7 Q 104.79999999999998 -52.7 104.35 -52.3 Q 103.89999999999998 -51.9 103.49999999999999 -51 Z M 97.79999999999998 -17.6 L 97.79999999999998 -3.6 Q 97.79999999999998 -1.7 96.94999999999999 -0.85 Q 96.1 0 94.19999999999999 0 L 94.19999999999999 0 L 79.49999999999999 0 Q 77.59999999999998 0 76.74999999999999 -0.85 Q 75.89999999999999 -1.7 75.89999999999999 -3.6 L 75.89999999999999 -3.6 L 75.89999999999999 -30 Q 75.89999999999999 -33 76.84999999999998 -36.9 Q 77.79999999999998 -40.8 79.79999999999998 -46 L 79.79999999999998 -46 L 88.49999999999999 -68.7 Q 89.1 -70.4 90.35 -71.2 Q 91.6 -72 93.6 -72 L 93.6 -72 L 120.49999999999999 -72 Q 122.39999999999998 -72 123.64999999999998 -71.2 Q 124.89999999999998 -70.4 125.49999999999999 -68.7 L 125.49999999999999 -68.7 L 134.2 -46 Q 136.2 -40.8 137.14999999999998 -36.9 Q 138.09999999999997 -33 138.09999999999997 -30 L 138.09999999999997 -30 L 138.09999999999997 -3.6 Q 138.09999999999997 -1.7 137.25 -0.85 Q 136.39999999999998 0 134.5 0 L 134.5 0 L 119.39999999999998 0 Q 117.39999999999998 0 116.44999999999999 -0.85 Q 115.49999999999999 -1.7 115.49999999999999 -3.6 L 115.49999999999999 -3.6 L 115.49999999999999 -17.6 L 97.79999999999998 -17.6 Z M 198.3 0 L 198.3 0 L 173.9 0 Q 161.4 0 155.35 -5 Q 149.3 -10 149.3 -20.4 L 149.3 -20.4 L 149.3 -51.5 Q 149.3 -61.9 155.35 -66.95 Q 161.4 -72 173.9 -72 L 173.9 -72 L 198.3 -72 Q 200.2 -72 201.05 -71.15 Q 201.9 -70.3 201.9 -68.4 L 201.9 -68.4 L 201.9 -56.3 Q 201.9 -54.4 201.05 -53.55 Q 200.2 -52.7 198.3 -52.7 L 198.3 -52.7 L 178.2 -52.7 Q 175.1 -52.7 173.6 -51.45 Q 172.1 -50.2 172.1 -47.7 L 172.1 -47.7 L 172.1 -23.9 Q 172.1 -21.4 173.6 -20.25 Q 175.1 -19.1 178.2 -19.1 L 178.2 -19.1 L 198.3 -19.1 Q 200.2 -19.1 201.05 -18.25 Q 201.9 -17.4 201.9 -15.5 L 201.9 -15.5 L 201.9 -3.6 Q 201.9 -1.7 201.05 -0.85 Q 200.2 0 198.3 0 Z M 232.3 0 L 232.3 0 L 216.8 0 Q 214.9 0 214.05 -0.85 Q 213.20000000000002 -1.7 213.20000000000002 -3.6 L 213.20000000000002 -3.6 L 213.20000000000002 -68.4 Q 213.20000000000002 -70.3 214.05 -71.15 Q 214.9 -72 216.8 -72 L 216.8 -72 L 232.3 -72 Q 234.20000000000002 -72 235.05 -71.15 Q 235.9 -70.3 235.9 -68.4 L 235.9 -68.4 L 235.9 -45.4 L 239.9 -45.4 L 250.20000000000002 -68.7 Q 250.9 -70.5 252.10000000000002 -71.25 Q 253.3 -72 255.20000000000002 -72 L 255.20000000000002 -72 L 270.6 -72 Q 272.3 -72 272.9 -71.15 Q 273.5 -70.3 272.8 -68.7 L 272.8 -68.7 L 262.6 -45.4 Q 268.2 -45.1 271.55 -41.45 Q 274.9 -37.8 274.9 -31.8 L 274.9 -31.8 L 274.9 -3.6 Q 274.9 -1.7 274.05 -0.85 Q 273.20000000000005 0 271.3 0 L 271.3 0 L 255.9 0 Q 254 0 253.15 -0.85 Q 252.3 -1.7 252.3 -3.6 L 252.3 -3.6 L 252.3 -23.1 Q 252.3 -24.7 251.5 -25.6 Q 250.70000000000002 -26.5 249.10000000000002 -26.5 L 249.10000000000002 -26.5 L 235.9 -26.5 L 235.9 -3.6 Q 235.9 -1.7 235.05 -0.85 Q 234.20000000000002 0 232.3 0 Z" stroke-linecap="round" />
</g>
<g transform="matrix(0.46 0 0 0.46 32.23 29.41)" id="gXN0DuzKMXk_FPwb8Cyyp"  >
<g style="" vector-effect="non-scaling-stroke"   >
		<g transform="matrix(0.21 0.13 -0.08 0.14 8.75 11.81)" id="fbCDT-wfD2Qar4yqjkRxP"  >
<path style="stroke: none; stroke-width: 1; stroke-dasharray: none; stroke-linecap: butt; stroke-dashoffset: 0; stroke-linejoin: miter; stroke-miterlimit: 4; fill: rgb(120,192,255); fill-rule: nonzero; opacity: 1;" vector-effect="non-scaling-stroke"  transform=" translate(-71.7, -184.34)" d="M 71.7 0 L 0 184.34 L 71.7 368.69 L 143.41 184.34 L 71.7 0 Z" stroke-linecap="round" />
</g>
		<g transform="matrix(0.21 0.13 -0.08 0.14 -22.17 29.94)" id="2WvirXski7zm_NG3Cwzm3"  >
<path style="stroke: none; stroke-width: 1; stroke-dasharray: none; stroke-linecap: butt; stroke-dashoffset: 0; stroke-linejoin: miter; stroke-miterlimit: 4; fill: rgb(150,206,255); fill-rule: nonzero; opacity: 1;" vector-effect="non-scaling-stroke"  transform=" translate(-71.7, -184.34)" d="M 71.7 0 L 0 184.34 L 71.7 368.69 L 143.41 184.34 L 71.7 0 Z" stroke-linecap="round" />
</g>
		<g transform="matrix(0.21 0.13 -0.08 0.14 39.68 -4.19)" id="CRVO9OjM70uauh699hII4"  >
<path style="stroke: none; stroke-width: 1; stroke-dasharray: none; stroke-linecap: butt; stroke-dashoffset: 0; stroke-linejoin: miter; stroke-miterlimit: 4; fill: rgb(76,150,215); fill-rule: nonzero; opacity: 1;" vector-effect="non-scaling-stroke"  transform=" translate(-71.7, -184.34)" d="M 71.7 0 L 0 184.34 L 71.7 368.69 L 143.41 184.34 L 71.7 0 Z" stroke-linecap="round" />
</g>
		<g transform="matrix(0.21 0.13 -0.08 0.14 7.69 -20.72)" id="OZAj9smbcPh6k-bfdBqjH"  >
<path style="stroke: none; stroke-width: 1; stroke-dasharray: none; stroke-linecap: butt; stroke-dashoffset: 0; stroke-linejoin: miter; stroke-miterlimit: 4; fill: rgb(47,123,189); fill-rule: nonzero; opacity: 1;" vector-effect="non-scaling-stroke"  transform=" translate(-71.7, -184.34)" d="M 71.7 0 L 0 184.34 L 71.7 368.69 L 143.41 184.34 L 71.7 0 Z" stroke-linecap="round" />
</g>
		<g transform="matrix(1.33 0 0 1.33 -7.05 -4.14)" id="wfgX2v-oTU5oWQgwfYX0R"  >
<path style="stroke: none; stroke-width: 1; stroke-dasharray: none; stroke-linecap: butt; stroke-dashoffset: 0; stroke-linejoin: miter; stroke-miterlimit: 4; fill: rgb(94,180,255); fill-rule: nonzero; opacity: 1;" vector-effect="non-scaling-stroke"  transform=" translate(-50, -50)" d="M 97.622 30.671 C 97.621 30.666999999999998 97.619 30.663 97.618 30.659 C 97.615 30.647 97.607 30.637 97.603 30.625 C 97.601 30.618 97.597 30.611 97.594 30.604 C 97.573 30.544 97.55199999999999 30.485 97.52 30.43 C 97.506 30.406 97.48599999999999 30.384999999999998 97.469 30.362 C 97.467 30.358999999999998 97.46499999999999 30.355999999999998 97.46199999999999 30.352999999999998 C 97.44599999999998 30.331 97.43199999999999 30.308999999999997 97.41299999999998 30.287999999999997 C 97.39499999999998 30.266999999999996 97.37999999999998 30.243999999999996 97.35999999999999 30.224999999999998 C 97.33699999999999 30.201999999999998 97.30699999999999 30.183999999999997 97.28099999999999 30.162999999999997 C 97.24399999999999 30.132999999999996 97.21 30.098999999999997 97.16799999999999 30.073999999999998 C 97.16199999999999 30.070999999999998 97.15499999999999 30.069999999999997 97.14899999999999 30.066 C 97.14399999999999 30.063 97.13999999999999 30.058999999999997 97.13499999999999 30.055999999999997 L 73.948 17.412 C 73.87299999999999 17.357 73.791 17.311 73.70299999999999 17.279 L 50.477 4.624 C 50.178 4.460999999999999 49.818 4.460999999999999 49.519999999999996 4.624 L 26.193 17.337 C 25.872 17.512 25.672 17.849 25.672 18.215 L 25.672 43.053 L 2.863 55.48 C 2.83 55.5 2.803 55.525 2.773 55.546 C 2.746 55.566 2.718 55.583 2.693 55.605 C 2.605 55.681 2.529 55.769 2.473 55.869 C 2.4699999999999998 55.873 2.4659999999999997 55.877 2.463 55.881 C 2.4570000000000003 55.893 2.4570000000000003 55.906 2.451 55.918 C 2.406 56.01 2.3770000000000002 56.107 2.361 56.208999999999996 C 2.3560000000000003 56.239999999999995 2.3510000000000004 56.267999999999994 2.349 56.299 C 2.3470000000000004 56.319 2.3400000000000003 56.338 2.3400000000000003 56.36 L 2.3400000000000003 81.786 C 2.3400000000000003 82.153 2.5400000000000005 82.489 2.861 82.665 L 26.191 95.378 C 26.238 95.403 26.288 95.417 26.337 95.435 C 26.364 95.44500000000001 26.389 95.458 26.416 95.46600000000001 C 26.5 95.48700000000001 26.584 95.49900000000001 26.669 95.49900000000001 L 26.669 95.49900000000001 L 26.67 95.49900000000001 C 26.755000000000003 95.49900000000001 26.840000000000003 95.48700000000001 26.922 95.46600000000001 C 26.925 95.46600000000001 26.928 95.46600000000001 26.931 95.46400000000001 C 26.95 95.46000000000001 26.966 95.44800000000001 26.984 95.44300000000001 C 26.994000000000003 95.43900000000001 27.003 95.43500000000002 27.012 95.43100000000001 C 27.058 95.41300000000001 27.105 95.40200000000002 27.149 95.37800000000001 L 97.135 57.237000000000016 C 97.456 57.06300000000002 97.656 56.725000000000016 97.656 56.360000000000014 L 97.656 30.934 C 97.658 30.844 97.646 30.755 97.622 30.671 z M 50.998 31.527 L 72.332 19.899 L 72.332 43.053 L 50.998 54.676 L 50.998 31.527 z M 50.998 56.953 L 72.332 45.33 L 72.332 68.476 L 50.998 80.104 L 50.998 56.953 z M 27.672 69.666 L 48.998000000000005 58.043 L 48.998000000000005 81.193 L 27.672 92.814 L 27.672 69.666 z M 95.658 55.766 L 74.332 67.387 L 74.332 44.24 L 95.65799999999999 32.617000000000004 L 95.65799999999999 55.766 z" stroke-linecap="round" />
</g>
</g>
</g>
</svg>